<?xml version="1.0" encoding="UTF-8"?>
<svg id="Layer_1" data-name="Layer 1" xmlns="http://www.w3.org/2000/svg" viewBox="0 0 64 64">
  <defs>
    <style>
      .cls-1, .cls-2 {
        fill: #fff;
      }

      .cls-3, .cls-2 {
        opacity: .5;
      }
    </style>
  </defs>
  <path class="cls-2" d="m51.32,33.93s-2.65-4.4-17.57-2.83c-14.92,1.57-1.38-8.95-1.38-8.95,0,0,12.36-2.98,18.95,1.65s.41,10.13.41,10.13h-.41Z"/>
  <path class="cls-2" d="m30.04,21.86s-5.64,5.82-10.48,8.36c-4.84,2.54-8.14,3.88-11.19,3.69-1.28-.08-1.85-.91-.46-2.71,1.39-1.8,9.1-6.97,22.13-9.34Z"/>
  <path class="cls-2" d="m38,39.32s-5.79,4.98-10.43,7.41c-4.64,2.43-8.25,3.74-10.6,3.73-1.23,0-2.91-.37-1.55-2.08,2.95-3.72,13.14-8.91,22.58-9.06Z"/>
  <path class="cls-2" d="m43.08,52.88l7.42-6.46s1.17-5.78-4.39-5.63-10.07,7.3-10.07,7.3c0,0,11.4-3.07,7.04,4.79Z"/>
  <path class="cls-2" d="m17.68,17.81s4.24-1.81,9.06-2.84c4.82-1.03,8.09-1.16,10.53-1.24s-2.19-4.63-2.19-4.63c0,0-2.98-.99-10.25.99-7.28,1.98-9.13,3.51-9.95,4.1-1.83,1.3-3.3,3.69-.36,3.12s3.16.5,3.16.5Z"/>
  <path class="cls-2" d="m36.05,8.85s4.86-.31,8.29,1.52c5.55,2.96,5.55,6.06,5.55,6.06,0,0-4.14-2.23-7.78-2.17-3.63.06-6.06-5.41-6.06-5.41Z"/>
  <path class="cls-2" d="m52.41,34.56s2.64,1.22,2.43,5.36,4.94-10.23-.49-14c-4.28-2.98-1.94,8.64-1.94,8.64Z"/>
  <path class="cls-2" d="m13.38,16.98c-.35-.19-.59-.85.67-2.05l.83-.74s-3.15,1.69-6.1,9.08c-2.17,5.42,7.77.85,7.77.85,0,0,4.65-1.88,3.51-6.54-.74-3.04-1.83-1.65-4.93-.58,0,0-1.23.27-1.75-.01Z"/>
  <path class="cls-1" d="m32.58,57.02s4.9-.09,9.56-2.26c5.8-2.7,7.22-4.06,9.93-7.42,2.33-2.9,4.89-8.78,4.83-15.25,0,0,0,5.98-6.29,13.21-3.18,3.65-5.08,5.37-9.47,8.04-1.7,1.03-5.09,2.96-8.88,3.31-.7.07-.19.36.32.36Z"/>
  <path class="cls-1" d="m11.78,43.81c6.36.38,22.82-11.64,27.54-18.77s4.62-10.79,3.01-13.65c-3.17-5.66-14.21-4.89-18.78-3.01-2.08.86-5.5,2.86-5.24,3.77s3.94-.65,3.94-.65c0,0,.39-2.98,7.79-2.78,3.05.08,4.44,2.83,4.12,5.16-.56,4.16-5.31,9.14-6.75,10.4-3.21,2.81-9.2,6.79-14.21,8.59-3.08,1.1-5.58.6-6.1,0,0,0,.33,8.17,3.07,10.41.45.37,1.03.56,1.61.56h0Z"/>
  <path class="cls-2" d="m29.7,21.89c-.76.87-1.42,1.54-1.82,1.91-3.25,2.97-9.3,6.95-14.37,8.85-3.11,1.17-5.89.82-6.41.18,0,0,0,.13.02.35.56.61,3.31.92,6.39-.2,5.07-1.85,11.12-5.7,14.37-8.59.5-.45,1.45-1.44,2.44-2.6l-.62.09Z"/>
  <path class="cls-1" d="m14.91,49.48s-.61,1.31,7.47,5.7c4.24,2.31,10.84-2.26,14.73-4.72,4.41-2.79,10.82-8.48,13.77-13.06s10.12-12.55-3.49-24.96c0,0,3.4,2.29,2.49,7.9-1.15,7.11-3.95,11.86-11.89,18.98-9.09,8.14-23.08,13.01-23.08,10.16Z"/>
  <g class="cls-3">
    <path class="cls-1" d="m37.97,39.34c-.4.34-6.13,4.66-10.6,7.01-4.64,2.43-8.29,3.82-10.63,3.8-.85,0-1.69-.15-1.82-.82-.21.93.89,1.14,1.87,1.14,2.41.01,6.16-1.4,10.93-3.91,4.77-2.5,10.92-7.24,10.92-7.24-.23,0-.45.01-.68.02Z"/>
  </g>
  <g class="cls-3">
    <path class="cls-1" d="m50.38,45.57c-1.84,2.32-4.36,4.3-4.82,4.65-2.05,1.52-5.19,3.95-9.39,5.52-1.98.74-3.28.87-3.97.94-.28.02-.31.14-.25.13.32,0,2.14-.08,4.36-.96,4.48-1.78,7.69-4.19,9.37-5.5,2.79-2.19,2.83-2.48,4.95-4.74"/>
  </g>
  <path class="cls-1" d="m19.84,17.65c-.36-1.5-.8-1.95-1.51-1.88-.74.15-1.75.72-3.21,1.23,0,0-.04,0-.11.02-.03.01-.07.02-.1.04,0,0-1.23.28-1.75-.01-.29-.16-.5-.64.12-1.47-1.19,1.28-2.87,3.62-4.5,7.69-2.17,5.42,7.77.85,7.77.85,0,0,.79-.32,1.63-1.02,1.15-1.05,2.29-2.82,1.66-5.45Z"/>
</svg>